<?xml version="1.0" standalone="no"?>
<!DOCTYPE svg PUBLIC "-//W3C//DTD SVG 20010904//EN"
 "http://www.w3.org/TR/2001/REC-SVG-20010904/DTD/svg10.dtd">
<svg version="1.0" xmlns="http://www.w3.org/2000/svg"
 width="1075.000000pt" height="1280.000000pt" viewBox="0 0 1075.000000 1280.000000"
 preserveAspectRatio="xMidYMid meet">

<g transform="translate(0.000000,1280.000000) scale(0.100000,-0.100000)"
fill="#000000" stroke="none">
<path d="M9145 12789 c-594 -80 -1045 -502 -1162 -1086 -26 -131 -23 -376 5
-510 102 -477 443 -859 897 -1006 148 -48 237 -61 415 -62 221 0 372 32 570
122 190 86 423 284 538 458 159 238 226 465 227 755 0 176 -12 255 -62 414
-141 451 -538 802 -1012 897 -114 23 -318 32 -416 18z"/>
<path d="M970 12025 c-448 -78 -817 -418 -930 -859 -101 -395 14 -816 300
-1106 162 -164 370 -277 600 -326 113 -24 354 -24 458 0 523 118 878 515 932
1041 54 526 -279 1034 -788 1205 -174 58 -395 76 -572 45z"/>
<path d="M5137 10315 c-503 -96 -812 -627 -647 -1115 73 -219 221 -389 425
-491 145 -71 230 -92 390 -91 149 0 234 18 360 76 144 67 258 165 354 305 165
241 187 591 53 856 -109 217 -305 377 -545 446 -96 27 -284 34 -390 14z"/>
<path d="M9231 9469 c-455 -35 -975 -209 -1416 -474 -145 -88 -205 -130 -497
-351 -651 -494 -1211 -758 -1808 -851 -161 -25 -502 -25 -655 0 -249 41 -461
107 -682 213 -73 34 -133 60 -133 58 0 -14 235 -156 365 -220 235 -117 499
-193 775 -225 166 -19 501 -7 681 25 480 83 940 265 1464 580 55 33 198 124
317 203 301 200 526 314 813 413 774 267 1474 192 1668 -177 71 -136 89 -256
75 -497 -22 -404 -119 -720 -465 -1531 -215 -503 -282 -673 -366 -930 -167
-511 -301 -1040 -391 -1545 -94 -527 -116 -737 -156 -1525 -29 -566 -50 -801
-95 -1092 -58 -369 -147 -650 -256 -810 -80 -117 -204 -223 -261 -223 -119 0
-245 179 -346 490 -63 195 -88 299 -162 690 -167 869 -401 1495 -724 1928
-113 152 -335 371 -462 455 -223 148 -435 217 -669 217 -294 0 -571 -105 -868
-328 -106 -80 -289 -254 -347 -332 -34 -44 -34 -44 31 15 138 128 318 247 514
341 359 173 672 187 970 45 131 -63 236 -143 363 -275 276 -290 475 -703 616
-1276 72 -293 114 -530 181 -1025 90 -661 226 -1031 463 -1257 240 -230 545
-258 818 -75 299 199 505 544 629 1052 94 385 140 746 190 1510 47 707 79 972
176 1465 106 537 240 1047 396 1504 60 175 117 322 392 998 228 559 337 966
372 1378 39 471 -61 823 -305 1078 -210 219 -474 331 -851 362 -135 11 -203
11 -354 -1z"/>
<path d="M1560 8829 c-284 -50 -526 -212 -694 -466 -170 -256 -254 -563 -263
-965 -9 -354 31 -618 148 -978 107 -328 224 -573 521 -1090 572 -997 803
-1467 981 -2000 123 -365 165 -583 262 -1358 96 -765 164 -1078 296 -1361 196
-422 557 -622 946 -525 493 122 859 755 1022 1765 11 68 41 273 66 454 48 343
69 459 112 610 109 381 311 584 583 585 202 0 379 -112 630 -400 21 -25 21
-24 -1 15 -88 156 -270 358 -380 423 -234 137 -520 110 -735 -70 -169 -141
-302 -383 -403 -728 -17 -58 -71 -281 -121 -495 -94 -405 -155 -633 -214 -795
-166 -464 -374 -784 -571 -881 -62 -30 -78 -34 -150 -34 -63 0 -89 5 -121 22
-88 47 -172 171 -232 344 -75 212 -121 515 -182 1189 -67 734 -129 1067 -285
1535 -92 273 -212 555 -391 915 -167 337 -278 538 -689 1245 -214 369 -319
587 -406 848 -91 274 -131 500 -132 752 -2 376 90 667 261 827 161 151 416
177 700 72 218 -81 459 -224 757 -449 88 -66 252 -191 365 -276 559 -423 894
-579 1415 -661 121 -19 180 -22 440 -22 260 0 319 3 440 22 423 66 754 196
1025 403 41 31 91 74 110 94 35 37 35 37 -40 -13 -241 -160 -590 -271 -950
-303 -183 -16 -514 -6 -695 21 -368 54 -697 170 -960 336 -186 118 -329 231
-655 519 -293 258 -378 329 -529 443 -286 215 -579 361 -836 418 -85 18 -367
27 -445 13z"/>
</g>
</svg>
